<svg width="1001" height="496" viewBox="0 0 1001 496" fill="none" xmlns="http://www.w3.org/2000/svg">
<g opacity="0.29827">
<path d="M1008.08 163.448L443.182 -356.858V-747.19L28.1096 -770C24.9043 -762.456 4.36709 -740.714 7.57176 -728.596C11.43 -714.102 30.8387 -718.735 36.4776 -709.409C43.0661 -698.42 31.7291 -653.749 28.3457 -640.86C21.8759 -616.445 7.09676 -596.665 2.82235 -572.25C-4.35982 -531.263 10.1824 -534.53 37.7242 -508.927C84.141 -465.742 46.9244 -420.952 58.6176 -370.223C68.1146 -328.878 109.605 -307.554 124.8 -266.211C136.553 -234.37 152.697 -226.233 177.746 -202.947C177.153 -217.084 164.51 -258.785 188.253 -255.102C211.817 -251.478 202.736 -216.669 207.247 -202.115C211.045 -189.997 237.933 -165.761 215.616 -154.593C208.196 -150.91 187.066 -165.582 178.577 -169.503C184.572 -150.791 180.774 -131.367 190.271 -113.487C201.608 -92.162 213.835 -100.359 228.853 -88.7754C244.344 -76.8355 242.683 -63.1137 235.797 -45.0554C228.615 -26.2247 221.196 -29.1352 232.592 -6.44342C240.843 9.95119 254.85 30.7421 266.9 43.2164C273.904 50.4634 281.502 52.1267 288.506 61.3932C294.323 69.1155 292.067 79.2142 299.012 86.1638C310.883 98.1037 331.006 98.282 340.384 113.904C350.831 131.309 338.96 144.437 369.706 142.833C371.309 177.643 377.897 209.185 377.541 243.994C394.695 250.825 422.414 242.687 440.399 239.063C458.266 263.18 481.355 246.429 501.774 259.558C510.678 265.26 508.837 279.517 514.239 284.506C525.339 294.723 533.529 288.308 547.301 291.872C557.51 294.486 565.404 301.97 575.138 304.703C584.338 307.257 599.475 301.258 606.301 309.396C614.492 319.138 600.78 336.958 613.127 344.799C623.395 351.333 638.115 335.77 648.088 338.027C659.721 340.7 693.079 371.174 701.271 381.212C710.59 392.677 719.969 414.062 725.25 428.793C733.501 451.841 732.373 463.127 749.408 479.998C760.27 490.75 749.942 491.522 767.63 494.67C779.204 496.749 794.518 488.374 806.212 487.067C830.549 484.394 855.122 489.027 879.102 484.453C901.421 480.176 922.729 473.166 945.64 469.899C965.465 467.048 1000.37 469.246 1017.94 459.801C1036.99 449.643 1038.71 426.654 1011.17 430.932C1008.97 416.26 1018.77 396.003 1007.85 385.847C1023.04 365.056 1028.56 350.384 1030.93 324.959C1032 313.792 1032.48 301.436 1038 292.05C1043.4 282.783 1058.59 277.259 1061.56 269.299C1066.13 256.943 1058.83 251.419 1053.25 244.528C1049.69 240.073 1039.54 242.212 1036.63 238.291C1031.23 231.103 1036.57 223.678 1033.6 216.431C1024.94 195.462 1014.61 187.205 1008.08 163.444C1008.26 167.424 1008.44 171.463 1008.2 175.384" stroke="white" stroke-width="2" stroke-linecap="round" stroke-linejoin="round"/>
</g>
<path d="M729.114 83.9394C720.546 107.321 740.614 115.526 756.675 130.807C761.434 135.336 761.888 142.817 756.879 147.342C746.107 157.074 705.264 142.917 707.854 155.745C710.53 168.994 745.061 187.531 746.618 188.799C760.284 199.932 764.736 228.174 757.208 243.658C751.853 254.676 716.342 250.962 705.172 247.293C632.024 223.266 664.985 226.131 582.817 218.67C576.527 218.099 569.935 217.806 563.894 219.65C557.672 221.549 557.87 229.339 559.957 233.55C566.876 247.506 516.835 225.314 508.5 243.658C505.943 249.287 483.5 215.5 462.5 215.5C438 203 373.94 223.749 373 228.5" stroke="white" stroke-width="2"/>
<path fill-rule="evenodd" clip-rule="evenodd" d="M570 319C571.657 319 573 317.657 573 316C573 314.343 571.657 313 570 313C568.343 313 567 314.343 567 316C567 317.657 568.343 319 570 319Z" fill="#4AF6CD"/>
<path fill-rule="evenodd" clip-rule="evenodd" d="M661 363C662.657 363 664 361.657 664 360C664 358.343 662.657 357 661 357C659.343 357 658 358.343 658 360C658 361.657 659.343 363 661 363Z" fill="#4AF6CD"/>
<path fill-rule="evenodd" clip-rule="evenodd" d="M725 471C726.657 471 728 469.657 728 468C728 466.343 726.657 465 725 465C723.343 465 722 466.343 722 468C722 469.657 723.343 471 725 471Z" fill="#4AF6CD"/>
<path fill-rule="evenodd" clip-rule="evenodd" d="M368.5 235C372.09 235 375 232.09 375 228.5C375 224.91 372.09 222 368.5 222C364.91 222 362 224.91 362 228.5C362 232.09 364.91 235 368.5 235Z" fill="#4AF6CD"/>
<path fill-rule="evenodd" clip-rule="evenodd" d="M729.5 91C733.09 91 736 88.0899 736 84.5C736 80.9101 733.09 78 729.5 78C725.91 78 723 80.9101 723 84.5C723 88.0899 725.91 91 729.5 91Z" fill="#4AF6CD"/>
<path d="M182.359 218H180.327L175.847 208.64C175.911 209.376 175.959 210.059 175.991 210.688C176.034 211.307 176.055 212.059 176.055 212.944V218H174.631V206.976H176.615L181.143 216.352C181.111 216.075 181.069 215.589 181.015 214.896C180.962 214.203 180.935 213.568 180.935 212.992V206.976H182.359V218ZM188.641 209.376C189.825 209.376 190.742 209.771 191.393 210.56C192.054 211.349 192.385 212.421 192.385 213.776C192.385 214.651 192.236 215.424 191.937 216.096C191.638 216.757 191.206 217.275 190.641 217.648C190.076 218.011 189.404 218.192 188.625 218.192C187.441 218.192 186.518 217.797 185.857 217.008C185.196 216.219 184.865 215.147 184.865 213.792C184.865 212.917 185.014 212.149 185.313 211.488C185.612 210.816 186.044 210.299 186.609 209.936C187.174 209.563 187.852 209.376 188.641 209.376ZM188.641 210.56C187.18 210.56 186.449 211.637 186.449 213.792C186.449 215.936 187.174 217.008 188.625 217.008C190.076 217.008 190.801 215.931 190.801 213.776C190.801 211.632 190.081 210.56 188.641 210.56ZM198.481 209.376C198.78 209.376 199.057 209.408 199.313 209.472L199.041 210.912C198.785 210.848 198.54 210.816 198.305 210.816C197.782 210.816 197.361 211.008 197.041 211.392C196.721 211.776 196.47 212.373 196.289 213.184V218H194.817V209.568H196.081L196.225 211.28C196.449 210.651 196.753 210.176 197.137 209.856C197.521 209.536 197.969 209.376 198.481 209.376ZM205.245 217.616C204.69 218 204.061 218.192 203.357 218.192C202.642 218.192 202.082 217.989 201.677 217.584C201.282 217.168 201.085 216.571 201.085 215.792V210.704H199.613V209.568H201.085V207.664L202.557 207.488V209.568H204.557L204.397 210.704H202.557V215.728C202.557 216.165 202.631 216.485 202.781 216.688C202.941 216.88 203.202 216.976 203.565 216.976C203.895 216.976 204.269 216.864 204.685 216.64L205.245 217.616ZM210.738 209.376C211.506 209.376 212.103 209.605 212.53 210.064C212.967 210.523 213.186 211.152 213.186 211.952V218H211.714V212.16C211.714 211.563 211.597 211.141 211.362 210.896C211.138 210.651 210.807 210.528 210.37 210.528C209.933 210.528 209.543 210.656 209.202 210.912C208.861 211.168 208.541 211.531 208.242 212V218H206.77V206.192L208.242 206.032V210.736C208.903 209.829 209.735 209.376 210.738 209.376ZM223.179 206.784C223.915 206.784 224.545 206.891 225.067 207.104C225.59 207.307 226.097 207.627 226.587 208.064L225.755 208.992C225.339 208.661 224.929 208.421 224.523 208.272C224.129 208.112 223.702 208.032 223.243 208.032C222.667 208.032 222.193 208.165 221.819 208.432C221.446 208.699 221.259 209.088 221.259 209.6C221.259 209.92 221.323 210.192 221.451 210.416C221.579 210.629 221.814 210.827 222.155 211.008C222.507 211.189 223.014 211.381 223.675 211.584C224.369 211.797 224.945 212.027 225.403 212.272C225.862 212.517 226.23 212.859 226.507 213.296C226.795 213.723 226.939 214.267 226.939 214.928C226.939 215.568 226.779 216.133 226.459 216.624C226.15 217.115 225.697 217.499 225.099 217.776C224.513 218.053 223.814 218.192 223.003 218.192C221.478 218.192 220.23 217.717 219.259 216.768L220.091 215.84C220.539 216.203 220.993 216.48 221.451 216.672C221.91 216.853 222.422 216.944 222.987 216.944C223.67 216.944 224.235 216.779 224.683 216.448C225.131 216.107 225.355 215.616 225.355 214.976C225.355 214.613 225.286 214.315 225.147 214.08C225.009 213.835 224.769 213.616 224.427 213.424C224.097 213.232 223.611 213.04 222.971 212.848C221.841 212.507 221.014 212.096 220.491 211.616C219.969 211.136 219.707 210.485 219.707 209.664C219.707 209.109 219.851 208.613 220.139 208.176C220.438 207.739 220.849 207.397 221.371 207.152C221.905 206.907 222.507 206.784 223.179 206.784ZM233.066 209.376C233.834 209.376 234.431 209.605 234.858 210.064C235.295 210.523 235.514 211.152 235.514 211.952V218H234.042V212.16C234.042 211.563 233.925 211.141 233.69 210.896C233.466 210.651 233.135 210.528 232.698 210.528C232.261 210.528 231.871 210.656 231.53 210.912C231.189 211.168 230.869 211.531 230.57 212V218H229.098V206.192L230.57 206.032V210.736C231.231 209.829 232.063 209.376 233.066 209.376ZM241.641 209.376C242.825 209.376 243.742 209.771 244.393 210.56C245.054 211.349 245.385 212.421 245.385 213.776C245.385 214.651 245.236 215.424 244.937 216.096C244.638 216.757 244.206 217.275 243.641 217.648C243.076 218.011 242.404 218.192 241.625 218.192C240.441 218.192 239.518 217.797 238.857 217.008C238.196 216.219 237.865 215.147 237.865 213.792C237.865 212.917 238.014 212.149 238.313 211.488C238.612 210.816 239.044 210.299 239.609 209.936C240.174 209.563 240.852 209.376 241.641 209.376ZM241.641 210.56C240.18 210.56 239.449 211.637 239.449 213.792C239.449 215.936 240.174 217.008 241.625 217.008C243.076 217.008 243.801 215.931 243.801 213.776C243.801 211.632 243.081 210.56 241.641 210.56ZM251.481 209.376C251.78 209.376 252.057 209.408 252.313 209.472L252.041 210.912C251.785 210.848 251.54 210.816 251.305 210.816C250.782 210.816 250.361 211.008 250.041 211.392C249.721 211.776 249.47 212.373 249.289 213.184V218H247.817V209.568H249.081L249.225 211.28C249.449 210.651 249.753 210.176 250.137 209.856C250.521 209.536 250.969 209.376 251.481 209.376ZM259.872 213.536C259.872 213.781 259.862 214.032 259.84 214.288H254.464C254.528 215.216 254.763 215.899 255.168 216.336C255.574 216.773 256.096 216.992 256.736 216.992C257.142 216.992 257.515 216.933 257.856 216.816C258.198 216.699 258.555 216.512 258.928 216.256L259.568 217.136C258.672 217.84 257.691 218.192 256.624 218.192C255.451 218.192 254.534 217.808 253.872 217.04C253.222 216.272 252.896 215.216 252.896 213.872C252.896 212.997 253.035 212.224 253.312 211.552C253.6 210.869 254.006 210.336 254.528 209.952C255.062 209.568 255.686 209.376 256.4 209.376C257.52 209.376 258.379 209.744 258.976 210.48C259.574 211.216 259.872 212.235 259.872 213.536ZM258.416 213.104C258.416 212.272 258.251 211.637 257.92 211.2C257.59 210.763 257.094 210.544 256.432 210.544C255.227 210.544 254.571 211.429 254.464 213.2H258.416V213.104ZM268.41 205.184V219.568H268.058V205.184H268.41ZM287.237 218H285.765L285.381 213.024C285.221 211.072 285.131 209.573 285.109 208.528L282.725 216.752H281.301L278.789 208.512C278.789 209.845 278.72 211.387 278.581 213.136L278.213 218H276.773L277.685 206.976H279.733L282.053 214.992L284.261 206.976H286.325L287.237 218ZM295.434 216.032C295.434 216.373 295.493 216.629 295.61 216.8C295.728 216.96 295.904 217.083 296.138 217.168L295.802 218.192C295.365 218.139 295.013 218.016 294.746 217.824C294.48 217.632 294.282 217.333 294.154 216.928C293.589 217.771 292.752 218.192 291.642 218.192C290.81 218.192 290.154 217.957 289.674 217.488C289.194 217.019 288.954 216.405 288.954 215.648C288.954 214.752 289.274 214.064 289.914 213.584C290.565 213.104 291.482 212.864 292.666 212.864H293.962V212.24C293.962 211.643 293.818 211.216 293.53 210.96C293.242 210.704 292.8 210.576 292.202 210.576C291.584 210.576 290.826 210.725 289.93 211.024L289.562 209.952C290.608 209.568 291.578 209.376 292.474 209.376C293.466 209.376 294.208 209.621 294.698 210.112C295.189 210.592 295.434 211.28 295.434 212.176V216.032ZM291.978 217.088C292.821 217.088 293.482 216.651 293.962 215.776V213.84H292.858C291.301 213.84 290.522 214.416 290.522 215.568C290.522 216.069 290.645 216.448 290.89 216.704C291.136 216.96 291.498 217.088 291.978 217.088ZM299.981 218.192C299.437 218.192 299.005 218.032 298.685 217.712C298.376 217.381 298.221 216.923 298.221 216.336V206.176L299.693 206V216.304C299.693 216.539 299.731 216.709 299.805 216.816C299.891 216.923 300.029 216.976 300.221 216.976C300.424 216.976 300.605 216.944 300.765 216.88L301.149 217.904C300.797 218.096 300.408 218.192 299.981 218.192ZM304.461 209.568V218H302.989V209.568H304.461ZM303.709 205.52C304.018 205.52 304.269 205.616 304.461 205.808C304.653 206 304.749 206.24 304.749 206.528C304.749 206.816 304.653 207.056 304.461 207.248C304.269 207.429 304.018 207.52 303.709 207.52C303.41 207.52 303.165 207.429 302.973 207.248C302.781 207.056 302.685 206.816 302.685 206.528C302.685 206.24 302.781 206 302.973 205.808C303.165 205.616 303.41 205.52 303.709 205.52ZM311.36 209.376C312.32 209.376 313.083 209.765 313.648 210.544C314.214 211.312 314.496 212.389 314.496 213.776C314.496 214.651 314.363 215.424 314.096 216.096C313.83 216.757 313.446 217.275 312.944 217.648C312.443 218.011 311.856 218.192 311.184 218.192C310.299 218.192 309.552 217.819 308.944 217.072L308.8 218H307.504V206.176L308.976 206V210.624C309.584 209.792 310.379 209.376 311.36 209.376ZM310.832 217.024C311.483 217.024 311.99 216.763 312.352 216.24C312.726 215.707 312.912 214.885 312.912 213.776C312.912 212.635 312.742 211.813 312.4 211.312C312.059 210.8 311.574 210.544 310.944 210.544C310.198 210.544 309.542 210.981 308.976 211.856V215.888C309.2 216.24 309.472 216.517 309.792 216.72C310.123 216.923 310.47 217.024 310.832 217.024ZM323.276 218H322.012L321.9 216.688C321.58 217.211 321.212 217.595 320.796 217.84C320.38 218.075 319.874 218.192 319.276 218.192C318.54 218.192 317.964 217.968 317.548 217.52C317.132 217.072 316.924 216.437 316.924 215.616V209.568H318.396V215.456C318.396 216.032 318.498 216.443 318.7 216.688C318.903 216.923 319.234 217.04 319.692 217.04C320.514 217.04 321.218 216.555 321.804 215.584V209.568H323.276V218ZM326.701 215.968C327.021 215.968 327.288 216.075 327.501 216.288C327.714 216.501 327.821 216.763 327.821 217.072C327.821 217.403 327.725 217.781 327.533 218.208L326.461 220.656H325.405L326.045 218C325.906 217.893 325.794 217.76 325.709 217.6C325.634 217.44 325.597 217.264 325.597 217.072C325.597 216.763 325.704 216.501 325.917 216.288C326.13 216.075 326.392 215.968 326.701 215.968ZM338.331 206.784C338.992 206.784 339.547 206.869 339.995 207.04C340.454 207.211 340.918 207.488 341.387 207.872L340.555 208.848C339.883 208.304 339.174 208.032 338.427 208.032C337.51 208.032 336.768 208.384 336.203 209.088C335.648 209.792 335.371 210.923 335.371 212.48C335.371 213.995 335.648 215.115 336.203 215.84C336.758 216.555 337.494 216.912 338.411 216.912C338.88 216.912 339.291 216.832 339.643 216.672C339.995 216.512 340.368 216.288 340.763 216L341.515 216.96C341.174 217.312 340.736 217.605 340.203 217.84C339.67 218.075 339.056 218.192 338.363 218.192C337.467 218.192 336.667 217.973 335.963 217.536C335.27 217.088 334.726 216.437 334.331 215.584C333.947 214.72 333.755 213.685 333.755 212.48C333.755 211.275 333.958 210.245 334.363 209.392C334.768 208.528 335.318 207.877 336.011 207.44C336.704 207.003 337.478 206.784 338.331 206.784ZM349.3 218L348.468 215.232H344.292L343.46 218H341.924L345.46 206.976H347.38L350.9 218H349.3ZM344.66 214H348.1L346.388 208.24L344.66 214Z" fill="white"/>
<path d="M598.378 75.784C599.039 75.784 599.594 75.8693 600.042 76.04C600.501 76.2107 600.965 76.488 601.434 76.872L600.602 77.848C599.93 77.304 599.221 77.032 598.474 77.032C597.557 77.032 596.815 77.384 596.25 78.088C595.695 78.792 595.418 79.9227 595.418 81.48C595.418 82.9947 595.695 84.1147 596.25 84.84C596.805 85.5547 597.541 85.912 598.458 85.912C598.927 85.912 599.338 85.832 599.69 85.672C600.042 85.512 600.415 85.288 600.81 85L601.562 85.96C601.221 86.312 600.783 86.6053 600.25 86.84C599.717 87.0747 599.103 87.192 598.41 87.192C597.514 87.192 596.714 86.9733 596.01 86.536C595.317 86.088 594.773 85.4373 594.378 84.584C593.994 83.72 593.802 82.6853 593.802 81.48C593.802 80.2747 594.005 79.2453 594.41 78.392C594.815 77.528 595.365 76.8773 596.058 76.44C596.751 76.0027 597.525 75.784 598.378 75.784ZM609.401 87H608.137L608.025 85.688C607.705 86.2107 607.337 86.5947 606.921 86.84C606.505 87.0747 605.999 87.192 605.401 87.192C604.665 87.192 604.089 86.968 603.673 86.52C603.257 86.072 603.049 85.4373 603.049 84.616V78.568H604.521V84.456C604.521 85.032 604.623 85.4427 604.825 85.688C605.028 85.9227 605.359 86.04 605.817 86.04C606.639 86.04 607.343 85.5547 607.929 84.584V78.568H609.401V87ZM616.106 78.376C616.405 78.376 616.682 78.408 616.938 78.472L616.666 79.912C616.41 79.848 616.165 79.816 615.93 79.816C615.407 79.816 614.986 80.008 614.666 80.392C614.346 80.776 614.095 81.3733 613.914 82.184V87H612.442V78.568H613.706L613.85 80.28C614.074 79.6507 614.378 79.176 614.762 78.856C615.146 78.536 615.594 78.376 616.106 78.376ZM622.278 78.376C622.576 78.376 622.854 78.408 623.11 78.472L622.838 79.912C622.582 79.848 622.336 79.816 622.102 79.816C621.579 79.816 621.158 80.008 620.838 80.392C620.518 80.776 620.267 81.3733 620.086 82.184V87H618.614V78.568H619.878L620.022 80.28C620.246 79.6507 620.55 79.176 620.934 78.856C621.318 78.536 621.766 78.376 622.278 78.376ZM630.669 82.536C630.669 82.7813 630.659 83.032 630.637 83.288H625.261C625.325 84.216 625.56 84.8987 625.965 85.336C626.371 85.7733 626.893 85.992 627.533 85.992C627.939 85.992 628.312 85.9333 628.653 85.816C628.995 85.6987 629.352 85.512 629.725 85.256L630.365 86.136C629.469 86.84 628.488 87.192 627.421 87.192C626.248 87.192 625.331 86.808 624.669 86.04C624.019 85.272 623.693 84.216 623.693 82.872C623.693 81.9973 623.832 81.224 624.109 80.552C624.397 79.8693 624.803 79.336 625.325 78.952C625.859 78.568 626.483 78.376 627.197 78.376C628.317 78.376 629.176 78.744 629.773 79.48C630.371 80.216 630.669 81.2347 630.669 82.536ZM629.213 82.104C629.213 81.272 629.048 80.6373 628.717 80.2C628.387 79.7627 627.891 79.544 627.229 79.544C626.024 79.544 625.368 80.4293 625.261 82.2H629.213V82.104ZM636.988 78.376C637.756 78.376 638.353 78.6053 638.78 79.064C639.217 79.5227 639.436 80.152 639.436 80.952V87H637.964V81.16C637.964 80.5627 637.852 80.1413 637.628 79.896C637.404 79.6507 637.073 79.528 636.636 79.528C636.188 79.528 635.793 79.656 635.452 79.912C635.111 80.168 634.791 80.536 634.492 81.016V87H633.02V78.568H634.284L634.412 79.816C634.711 79.368 635.079 79.016 635.516 78.76C635.964 78.504 636.455 78.376 636.988 78.376ZM646.651 86.616C646.096 87 645.467 87.192 644.763 87.192C644.048 87.192 643.488 86.9893 643.083 86.584C642.688 86.168 642.491 85.5707 642.491 84.792V79.704H641.019V78.568H642.491V76.664L643.963 76.488V78.568H645.963L645.803 79.704H643.963V84.728C643.963 85.1653 644.038 85.4853 644.187 85.688C644.347 85.88 644.608 85.976 644.971 85.976C645.302 85.976 645.675 85.864 646.091 85.64L646.651 86.616ZM654.011 75.976V85.672H658.539L658.363 87H652.491V75.976H654.011ZM663.141 78.376C664.325 78.376 665.242 78.7707 665.893 79.56C666.554 80.3493 666.885 81.4213 666.885 82.776C666.885 83.6507 666.736 84.424 666.437 85.096C666.138 85.7573 665.706 86.2747 665.141 86.648C664.576 87.0107 663.904 87.192 663.125 87.192C661.941 87.192 661.018 86.7973 660.357 86.008C659.696 85.2187 659.365 84.1467 659.365 82.792C659.365 81.9173 659.514 81.1493 659.813 80.488C660.112 79.816 660.544 79.2987 661.109 78.936C661.674 78.5627 662.352 78.376 663.141 78.376ZM663.141 79.56C661.68 79.56 660.949 80.6373 660.949 82.792C660.949 84.936 661.674 86.008 663.125 86.008C664.576 86.008 665.301 84.9307 665.301 82.776C665.301 80.632 664.581 79.56 663.141 79.56ZM672.389 78.376C672.89 78.376 673.349 78.4507 673.765 78.6C674.181 78.7387 674.581 78.968 674.965 79.288L674.261 80.216C673.962 80.0027 673.669 79.848 673.381 79.752C673.104 79.6453 672.794 79.592 672.453 79.592C671.77 79.592 671.237 79.864 670.853 80.408C670.48 80.952 670.293 81.7573 670.293 82.824C670.293 83.8907 670.48 84.68 670.853 85.192C671.226 85.6933 671.76 85.944 672.453 85.944C672.784 85.944 673.088 85.896 673.365 85.8C673.642 85.6933 673.952 85.528 674.293 85.304L674.965 86.264C674.197 86.8827 673.338 87.192 672.389 87.192C671.248 87.192 670.346 86.808 669.685 86.04C669.034 85.272 668.709 84.2107 668.709 82.856C668.709 81.96 668.858 81.176 669.157 80.504C669.456 79.832 669.877 79.3093 670.421 78.936C670.976 78.5627 671.632 78.376 672.389 78.376ZM682.481 85.032C682.481 85.3733 682.54 85.6293 682.657 85.8C682.775 85.96 682.951 86.0827 683.185 86.168L682.849 87.192C682.412 87.1387 682.06 87.016 681.793 86.824C681.527 86.632 681.329 86.3333 681.201 85.928C680.636 86.7707 679.799 87.192 678.689 87.192C677.857 87.192 677.201 86.9573 676.721 86.488C676.241 86.0187 676.001 85.4053 676.001 84.648C676.001 83.752 676.321 83.064 676.961 82.584C677.612 82.104 678.529 81.864 679.713 81.864H681.009V81.24C681.009 80.6427 680.865 80.216 680.577 79.96C680.289 79.704 679.847 79.576 679.249 79.576C678.631 79.576 677.873 79.7253 676.977 80.024L676.609 78.952C677.655 78.568 678.625 78.376 679.521 78.376C680.513 78.376 681.255 78.6213 681.745 79.112C682.236 79.592 682.481 80.28 682.481 81.176V85.032ZM679.025 86.088C679.868 86.088 680.529 85.6507 681.009 84.776V82.84H679.905C678.348 82.84 677.569 83.416 677.569 84.568C677.569 85.0693 677.692 85.448 677.937 85.704C678.183 85.96 678.545 86.088 679.025 86.088ZM689.76 86.616C689.206 87 688.576 87.192 687.872 87.192C687.158 87.192 686.598 86.9893 686.192 86.584C685.798 86.168 685.6 85.5707 685.6 84.792V79.704H684.128V78.568H685.6V76.664L687.072 76.488V78.568H689.072L688.912 79.704H687.072V84.728C687.072 85.1653 687.147 85.4853 687.296 85.688C687.456 85.88 687.718 85.976 688.08 85.976C688.411 85.976 688.784 85.864 689.2 85.64L689.76 86.616ZM692.758 78.568V87H691.286V78.568H692.758ZM692.006 74.52C692.315 74.52 692.566 74.616 692.758 74.808C692.95 75 693.046 75.24 693.046 75.528C693.046 75.816 692.95 76.056 692.758 76.248C692.566 76.4293 692.315 76.52 692.006 76.52C691.707 76.52 691.462 76.4293 691.27 76.248C691.078 76.056 690.982 75.816 690.982 75.528C690.982 75.24 691.078 75 691.27 74.808C691.462 74.616 691.707 74.52 692.006 74.52ZM698.969 78.376C700.153 78.376 701.071 78.7707 701.721 79.56C702.383 80.3493 702.713 81.4213 702.713 82.776C702.713 83.6507 702.564 84.424 702.265 85.096C701.967 85.7573 701.535 86.2747 700.969 86.648C700.404 87.0107 699.732 87.192 698.953 87.192C697.769 87.192 696.847 86.7973 696.185 86.008C695.524 85.2187 695.193 84.1467 695.193 82.792C695.193 81.9173 695.343 81.1493 695.641 80.488C695.94 79.816 696.372 79.2987 696.937 78.936C697.503 78.5627 698.18 78.376 698.969 78.376ZM698.969 79.56C697.508 79.56 696.777 80.6373 696.777 82.792C696.777 84.936 697.503 86.008 698.953 86.008C700.404 86.008 701.129 84.9307 701.129 82.776C701.129 80.632 700.409 79.56 698.969 79.56ZM709.113 78.376C709.881 78.376 710.478 78.6053 710.905 79.064C711.342 79.5227 711.561 80.152 711.561 80.952V87H710.089V81.16C710.089 80.5627 709.977 80.1413 709.753 79.896C709.529 79.6507 709.198 79.528 708.761 79.528C708.313 79.528 707.918 79.656 707.577 79.912C707.236 80.168 706.916 80.536 706.617 81.016V87H705.145V78.568H706.409L706.537 79.816C706.836 79.368 707.204 79.016 707.641 78.76C708.089 78.504 708.58 78.376 709.113 78.376Z" fill="white"/>
</svg>
