<svg width="1001" height="496" viewBox="0 0 1001 496" fill="none" xmlns="http://www.w3.org/2000/svg">
<g opacity="0.29827">
<path d="M1008.08 163.448L443.182 -356.858V-747.19L28.1096 -770C24.9043 -762.456 4.36709 -740.714 7.57176 -728.596C11.43 -714.102 30.8387 -718.735 36.4776 -709.409C43.0661 -698.42 31.7291 -653.749 28.3457 -640.86C21.8759 -616.445 7.09676 -596.665 2.82235 -572.25C-4.35982 -531.263 10.1824 -534.53 37.7242 -508.927C84.141 -465.742 46.9244 -420.952 58.6176 -370.223C68.1146 -328.878 109.605 -307.554 124.8 -266.211C136.553 -234.37 152.697 -226.233 177.746 -202.947C177.153 -217.084 164.51 -258.785 188.253 -255.102C211.817 -251.478 202.736 -216.669 207.247 -202.115C211.045 -189.997 237.933 -165.761 215.616 -154.593C208.196 -150.91 187.066 -165.582 178.577 -169.503C184.572 -150.791 180.774 -131.367 190.271 -113.487C201.608 -92.162 213.835 -100.359 228.853 -88.7754C244.344 -76.8355 242.683 -63.1137 235.797 -45.0554C228.615 -26.2247 221.196 -29.1352 232.592 -6.44342C240.843 9.95119 254.85 30.7421 266.9 43.2164C273.904 50.4634 281.502 52.1267 288.506 61.3932C294.323 69.1155 292.067 79.2142 299.012 86.1638C310.883 98.1037 331.006 98.282 340.384 113.904C350.831 131.309 338.96 144.437 369.706 142.833C371.309 177.643 377.897 209.185 377.541 243.994C394.695 250.825 422.414 242.687 440.399 239.063C458.266 263.18 481.355 246.429 501.774 259.558C510.678 265.26 508.837 279.517 514.239 284.506C525.339 294.723 533.529 288.308 547.301 291.872C557.51 294.486 565.404 301.97 575.138 304.703C584.338 307.257 599.475 301.258 606.301 309.396C614.492 319.138 600.78 336.958 613.127 344.799C623.395 351.333 638.115 335.77 648.088 338.027C659.721 340.7 693.079 371.174 701.271 381.212C710.59 392.677 719.969 414.062 725.25 428.793C733.501 451.841 732.373 463.127 749.408 479.998C760.27 490.75 749.942 491.522 767.63 494.67C779.204 496.749 794.518 488.374 806.212 487.067C830.549 484.394 855.122 489.027 879.102 484.453C901.421 480.176 922.729 473.166 945.64 469.899C965.465 467.048 1000.37 469.246 1017.94 459.801C1036.99 449.643 1038.71 426.654 1011.17 430.932C1008.97 416.26 1018.77 396.003 1007.85 385.847C1023.04 365.056 1028.56 350.384 1030.93 324.959C1032 313.792 1032.48 301.436 1038 292.05C1043.4 282.783 1058.59 277.259 1061.56 269.299C1066.13 256.943 1058.83 251.419 1053.25 244.528C1049.69 240.073 1039.54 242.212 1036.63 238.291C1031.23 231.103 1036.57 223.678 1033.6 216.431C1024.94 195.462 1014.61 187.205 1008.08 163.444C1008.26 167.424 1008.44 171.463 1008.2 175.384" stroke="white" stroke-width="2" stroke-linecap="round" stroke-linejoin="round"/>
</g>
<path d="M729.114 83.9394C720.546 107.321 740.614 115.526 756.675 130.807C761.434 135.336 761.888 142.817 756.879 147.342C746.107 157.074 705.264 142.917 707.854 155.745C710.53 168.994 745.061 187.531 746.618 188.799C760.284 199.932 764.736 228.174 757.208 243.658C751.852 254.676 716.342 250.962 705.172 247.293C632.024 223.266 795.668 297.461 713.5 290C676.5 294.5 813 361 797 383C794 405.5 787.412 424.789 789.5 429C796.419 442.956 779.835 443.655 771.5 462C768.942 467.629 778.208 471 757.208 471C732.5 471 730.054 466.249 729.114 471" stroke="white" stroke-width="2"/>
<path fill-rule="evenodd" clip-rule="evenodd" d="M570 319C571.657 319 573 317.657 573 316C573 314.343 571.657 313 570 313C568.343 313 567 314.343 567 316C567 317.657 568.343 319 570 319Z" fill="#4AF6CD"/>
<path fill-rule="evenodd" clip-rule="evenodd" d="M661 363C662.657 363 664 361.657 664 360C664 358.343 662.657 357 661 357C659.343 357 658 358.343 658 360C658 361.657 659.343 363 661 363Z" fill="#4AF6CD"/>
<path fill-rule="evenodd" clip-rule="evenodd" d="M728.5 478C732.09 478 735 475.09 735 471.5C735 467.91 732.09 465 728.5 465C724.91 465 722 467.91 722 471.5C722 475.09 724.91 478 728.5 478Z" fill="#4AF6CD"/>
<path fill-rule="evenodd" clip-rule="evenodd" d="M365 228C366.657 228 368 226.657 368 225C368 223.343 366.657 222 365 222C363.343 222 362 223.343 362 225C362 226.657 363.343 228 365 228Z" fill="#4AF6CD"/>
<path fill-rule="evenodd" clip-rule="evenodd" d="M729.5 91C733.09 91 736 88.0899 736 84.5C736 80.9101 733.09 78 729.5 78C725.91 78 723 80.9101 723 84.5C723 88.0899 725.91 91 729.5 91Z" fill="#4AF6CD"/>
<path d="M538.414 449.784C539.15 449.784 539.779 449.891 540.302 450.104C540.824 450.307 541.331 450.627 541.822 451.064L540.99 451.992C540.574 451.661 540.163 451.421 539.758 451.272C539.363 451.112 538.936 451.032 538.478 451.032C537.902 451.032 537.427 451.165 537.054 451.432C536.68 451.699 536.494 452.088 536.494 452.6C536.494 452.92 536.558 453.192 536.686 453.416C536.814 453.629 537.048 453.827 537.39 454.008C537.742 454.189 538.248 454.381 538.91 454.584C539.603 454.797 540.179 455.027 540.638 455.272C541.096 455.517 541.464 455.859 541.742 456.296C542.03 456.723 542.174 457.267 542.174 457.928C542.174 458.568 542.014 459.133 541.694 459.624C541.384 460.115 540.931 460.499 540.334 460.776C539.747 461.053 539.048 461.192 538.238 461.192C536.712 461.192 535.464 460.717 534.494 459.768L535.326 458.84C535.774 459.203 536.227 459.48 536.686 459.672C537.144 459.853 537.656 459.944 538.222 459.944C538.904 459.944 539.47 459.779 539.918 459.448C540.366 459.107 540.59 458.616 540.59 457.976C540.59 457.613 540.52 457.315 540.382 457.08C540.243 456.835 540.003 456.616 539.662 456.424C539.331 456.232 538.846 456.04 538.206 455.848C537.075 455.507 536.248 455.096 535.726 454.616C535.203 454.136 534.942 453.485 534.942 452.664C534.942 452.109 535.086 451.613 535.374 451.176C535.672 450.739 536.083 450.397 536.606 450.152C537.139 449.907 537.742 449.784 538.414 449.784ZM547.501 452.376C548.685 452.376 549.602 452.771 550.253 453.56C550.914 454.349 551.245 455.421 551.245 456.776C551.245 457.651 551.095 458.424 550.797 459.096C550.498 459.757 550.066 460.275 549.501 460.648C548.935 461.011 548.263 461.192 547.485 461.192C546.301 461.192 545.378 460.797 544.717 460.008C544.055 459.219 543.725 458.147 543.725 456.792C543.725 455.917 543.874 455.149 544.173 454.488C544.471 453.816 544.903 453.299 545.469 452.936C546.034 452.563 546.711 452.376 547.501 452.376ZM547.501 453.56C546.039 453.56 545.309 454.637 545.309 456.792C545.309 458.936 546.034 460.008 547.485 460.008C548.935 460.008 549.661 458.931 549.661 456.776C549.661 454.632 548.941 453.56 547.501 453.56ZM559.948 461H558.684L558.572 459.688C558.252 460.211 557.884 460.595 557.468 460.84C557.052 461.075 556.546 461.192 555.948 461.192C555.212 461.192 554.636 460.968 554.22 460.52C553.804 460.072 553.596 459.437 553.596 458.616V452.568H555.068V458.456C555.068 459.032 555.17 459.443 555.372 459.688C555.575 459.923 555.906 460.04 556.364 460.04C557.186 460.04 557.89 459.555 558.476 458.584V452.568H559.948V461ZM567.245 460.616C566.69 461 566.061 461.192 565.357 461.192C564.642 461.192 564.082 460.989 563.677 460.584C563.282 460.168 563.085 459.571 563.085 458.792V453.704H561.613V452.568H563.085V450.664L564.557 450.488V452.568H566.557L566.397 453.704H564.557V458.728C564.557 459.165 564.631 459.485 564.781 459.688C564.941 459.88 565.202 459.976 565.565 459.976C565.895 459.976 566.269 459.864 566.685 459.64L567.245 460.616ZM572.738 452.376C573.506 452.376 574.103 452.605 574.53 453.064C574.967 453.523 575.186 454.152 575.186 454.952V461H573.714V455.16C573.714 454.563 573.597 454.141 573.362 453.896C573.138 453.651 572.807 453.528 572.37 453.528C571.933 453.528 571.543 453.656 571.202 453.912C570.861 454.168 570.541 454.531 570.242 455V461H568.77V449.192L570.242 449.032V453.736C570.903 452.829 571.735 452.376 572.738 452.376ZM585.179 449.784C585.915 449.784 586.545 449.891 587.067 450.104C587.59 450.307 588.097 450.627 588.587 451.064L587.755 451.992C587.339 451.661 586.929 451.421 586.523 451.272C586.129 451.112 585.702 451.032 585.243 451.032C584.667 451.032 584.193 451.165 583.819 451.432C583.446 451.699 583.259 452.088 583.259 452.6C583.259 452.92 583.323 453.192 583.451 453.416C583.579 453.629 583.814 453.827 584.155 454.008C584.507 454.189 585.014 454.381 585.675 454.584C586.369 454.797 586.945 455.027 587.403 455.272C587.862 455.517 588.23 455.859 588.507 456.296C588.795 456.723 588.939 457.267 588.939 457.928C588.939 458.568 588.779 459.133 588.459 459.624C588.15 460.115 587.697 460.499 587.099 460.776C586.513 461.053 585.814 461.192 585.003 461.192C583.478 461.192 582.23 460.717 581.259 459.768L582.091 458.84C582.539 459.203 582.993 459.48 583.451 459.672C583.91 459.853 584.422 459.944 584.987 459.944C585.67 459.944 586.235 459.779 586.683 459.448C587.131 459.107 587.355 458.616 587.355 457.976C587.355 457.613 587.286 457.315 587.147 457.08C587.009 456.835 586.769 456.616 586.427 456.424C586.097 456.232 585.611 456.04 584.971 455.848C583.841 455.507 583.014 455.096 582.491 454.616C581.969 454.136 581.707 453.485 581.707 452.664C581.707 452.109 581.851 451.613 582.139 451.176C582.438 450.739 582.849 450.397 583.371 450.152C583.905 449.907 584.507 449.784 585.179 449.784ZM595.066 452.376C595.834 452.376 596.431 452.605 596.858 453.064C597.295 453.523 597.514 454.152 597.514 454.952V461H596.042V455.16C596.042 454.563 595.925 454.141 595.69 453.896C595.466 453.651 595.135 453.528 594.698 453.528C594.261 453.528 593.871 453.656 593.53 453.912C593.189 454.168 592.869 454.531 592.57 455V461H591.098V449.192L592.57 449.032V453.736C593.231 452.829 594.063 452.376 595.066 452.376ZM603.641 452.376C604.825 452.376 605.742 452.771 606.393 453.56C607.054 454.349 607.385 455.421 607.385 456.776C607.385 457.651 607.236 458.424 606.937 459.096C606.638 459.757 606.206 460.275 605.641 460.648C605.076 461.011 604.404 461.192 603.625 461.192C602.441 461.192 601.518 460.797 600.857 460.008C600.196 459.219 599.865 458.147 599.865 456.792C599.865 455.917 600.014 455.149 600.313 454.488C600.612 453.816 601.044 453.299 601.609 452.936C602.174 452.563 602.852 452.376 603.641 452.376ZM603.641 453.56C602.18 453.56 601.449 454.637 601.449 456.792C601.449 458.936 602.174 460.008 603.625 460.008C605.076 460.008 605.801 458.931 605.801 456.776C605.801 454.632 605.081 453.56 603.641 453.56ZM613.481 452.376C613.78 452.376 614.057 452.408 614.313 452.472L614.041 453.912C613.785 453.848 613.54 453.816 613.305 453.816C612.782 453.816 612.361 454.008 612.041 454.392C611.721 454.776 611.47 455.373 611.289 456.184V461H609.817V452.568H611.081L611.225 454.28C611.449 453.651 611.753 453.176 612.137 452.856C612.521 452.536 612.969 452.376 613.481 452.376ZM621.872 456.536C621.872 456.781 621.862 457.032 621.84 457.288H616.464C616.528 458.216 616.763 458.899 617.168 459.336C617.574 459.773 618.096 459.992 618.736 459.992C619.142 459.992 619.515 459.933 619.856 459.816C620.198 459.699 620.555 459.512 620.928 459.256L621.568 460.136C620.672 460.84 619.691 461.192 618.624 461.192C617.451 461.192 616.534 460.808 615.872 460.04C615.222 459.272 614.896 458.216 614.896 456.872C614.896 455.997 615.035 455.224 615.312 454.552C615.6 453.869 616.006 453.336 616.528 452.952C617.062 452.568 617.686 452.376 618.4 452.376C619.52 452.376 620.379 452.744 620.976 453.48C621.574 454.216 621.872 455.235 621.872 456.536ZM620.416 456.104C620.416 455.272 620.251 454.637 619.92 454.2C619.59 453.763 619.094 453.544 618.432 453.544C617.227 453.544 616.571 454.429 616.464 456.2H620.416V456.104ZM630.41 448.184V462.568H630.058V448.184H630.41ZM649.237 461H647.765L647.381 456.024C647.221 454.072 647.131 452.573 647.109 451.528L644.725 459.752H643.301L640.789 451.512C640.789 452.845 640.72 454.387 640.581 456.136L640.213 461H638.773L639.685 449.976H641.733L644.053 457.992L646.261 449.976H648.325L649.237 461ZM657.434 459.032C657.434 459.373 657.493 459.629 657.61 459.8C657.728 459.96 657.904 460.083 658.138 460.168L657.802 461.192C657.365 461.139 657.013 461.016 656.746 460.824C656.48 460.632 656.282 460.333 656.154 459.928C655.589 460.771 654.752 461.192 653.642 461.192C652.81 461.192 652.154 460.957 651.674 460.488C651.194 460.019 650.954 459.405 650.954 458.648C650.954 457.752 651.274 457.064 651.914 456.584C652.565 456.104 653.482 455.864 654.666 455.864H655.962V455.24C655.962 454.643 655.818 454.216 655.53 453.96C655.242 453.704 654.8 453.576 654.202 453.576C653.584 453.576 652.826 453.725 651.93 454.024L651.562 452.952C652.608 452.568 653.578 452.376 654.474 452.376C655.466 452.376 656.208 452.621 656.698 453.112C657.189 453.592 657.434 454.28 657.434 455.176V459.032ZM653.978 460.088C654.821 460.088 655.482 459.651 655.962 458.776V456.84H654.858C653.301 456.84 652.522 457.416 652.522 458.568C652.522 459.069 652.645 459.448 652.89 459.704C653.136 459.96 653.498 460.088 653.978 460.088ZM661.981 461.192C661.437 461.192 661.005 461.032 660.685 460.712C660.376 460.381 660.221 459.923 660.221 459.336V449.176L661.693 449V459.304C661.693 459.539 661.731 459.709 661.805 459.816C661.891 459.923 662.029 459.976 662.221 459.976C662.424 459.976 662.605 459.944 662.765 459.88L663.149 460.904C662.797 461.096 662.408 461.192 661.981 461.192ZM666.461 452.568V461H664.989V452.568H666.461ZM665.709 448.52C666.018 448.52 666.269 448.616 666.461 448.808C666.653 449 666.749 449.24 666.749 449.528C666.749 449.816 666.653 450.056 666.461 450.248C666.269 450.429 666.018 450.52 665.709 450.52C665.41 450.52 665.165 450.429 664.973 450.248C664.781 450.056 664.685 449.816 664.685 449.528C664.685 449.24 664.781 449 664.973 448.808C665.165 448.616 665.41 448.52 665.709 448.52ZM673.36 452.376C674.32 452.376 675.083 452.765 675.648 453.544C676.214 454.312 676.496 455.389 676.496 456.776C676.496 457.651 676.363 458.424 676.096 459.096C675.83 459.757 675.446 460.275 674.944 460.648C674.443 461.011 673.856 461.192 673.184 461.192C672.299 461.192 671.552 460.819 670.944 460.072L670.8 461H669.504V449.176L670.976 449V453.624C671.584 452.792 672.379 452.376 673.36 452.376ZM672.832 460.024C673.483 460.024 673.99 459.763 674.352 459.24C674.726 458.707 674.912 457.885 674.912 456.776C674.912 455.635 674.742 454.813 674.4 454.312C674.059 453.8 673.574 453.544 672.944 453.544C672.198 453.544 671.542 453.981 670.976 454.856V458.888C671.2 459.24 671.472 459.517 671.792 459.72C672.123 459.923 672.47 460.024 672.832 460.024ZM685.276 461H684.012L683.9 459.688C683.58 460.211 683.212 460.595 682.796 460.84C682.38 461.075 681.874 461.192 681.276 461.192C680.54 461.192 679.964 460.968 679.548 460.52C679.132 460.072 678.924 459.437 678.924 458.616V452.568H680.396V458.456C680.396 459.032 680.498 459.443 680.7 459.688C680.903 459.923 681.234 460.04 681.692 460.04C682.514 460.04 683.218 459.555 683.804 458.584V452.568H685.276V461ZM688.701 458.968C689.021 458.968 689.288 459.075 689.501 459.288C689.714 459.501 689.821 459.763 689.821 460.072C689.821 460.403 689.725 460.781 689.533 461.208L688.461 463.656H687.405L688.045 461C687.906 460.893 687.794 460.76 687.709 460.6C687.634 460.44 687.597 460.264 687.597 460.072C687.597 459.763 687.704 459.501 687.917 459.288C688.13 459.075 688.392 458.968 688.701 458.968ZM700.331 449.784C700.992 449.784 701.547 449.869 701.995 450.04C702.454 450.211 702.918 450.488 703.387 450.872L702.555 451.848C701.883 451.304 701.174 451.032 700.427 451.032C699.51 451.032 698.768 451.384 698.203 452.088C697.648 452.792 697.371 453.923 697.371 455.48C697.371 456.995 697.648 458.115 698.203 458.84C698.758 459.555 699.494 459.912 700.411 459.912C700.88 459.912 701.291 459.832 701.643 459.672C701.995 459.512 702.368 459.288 702.763 459L703.515 459.96C703.174 460.312 702.736 460.605 702.203 460.84C701.67 461.075 701.056 461.192 700.363 461.192C699.467 461.192 698.667 460.973 697.963 460.536C697.27 460.088 696.726 459.437 696.331 458.584C695.947 457.72 695.755 456.685 695.755 455.48C695.755 454.275 695.958 453.245 696.363 452.392C696.768 451.528 697.318 450.877 698.011 450.44C698.704 450.003 699.478 449.784 700.331 449.784ZM711.3 461L710.468 458.232H706.292L705.46 461H703.924L707.46 449.976H709.38L712.9 461H711.3ZM706.66 457H710.1L708.388 451.24L706.66 457Z" fill="white"/>
<path d="M598.378 75.784C599.039 75.784 599.594 75.8693 600.042 76.04C600.501 76.2107 600.965 76.488 601.434 76.872L600.602 77.848C599.93 77.304 599.221 77.032 598.474 77.032C597.557 77.032 596.815 77.384 596.25 78.088C595.695 78.792 595.418 79.9227 595.418 81.48C595.418 82.9947 595.695 84.1147 596.25 84.84C596.805 85.5547 597.541 85.912 598.458 85.912C598.927 85.912 599.338 85.832 599.69 85.672C600.042 85.512 600.415 85.288 600.81 85L601.562 85.96C601.221 86.312 600.783 86.6053 600.25 86.84C599.717 87.0747 599.103 87.192 598.41 87.192C597.514 87.192 596.714 86.9733 596.01 86.536C595.317 86.088 594.773 85.4373 594.378 84.584C593.994 83.72 593.802 82.6853 593.802 81.48C593.802 80.2747 594.005 79.2453 594.41 78.392C594.815 77.528 595.365 76.8773 596.058 76.44C596.751 76.0027 597.525 75.784 598.378 75.784ZM609.401 87H608.137L608.025 85.688C607.705 86.2107 607.337 86.5947 606.921 86.84C606.505 87.0747 605.999 87.192 605.401 87.192C604.665 87.192 604.089 86.968 603.673 86.52C603.257 86.072 603.049 85.4373 603.049 84.616V78.568H604.521V84.456C604.521 85.032 604.623 85.4427 604.825 85.688C605.028 85.9227 605.359 86.04 605.817 86.04C606.639 86.04 607.343 85.5547 607.929 84.584V78.568H609.401V87ZM616.106 78.376C616.405 78.376 616.682 78.408 616.938 78.472L616.666 79.912C616.41 79.848 616.165 79.816 615.93 79.816C615.407 79.816 614.986 80.008 614.666 80.392C614.346 80.776 614.095 81.3733 613.914 82.184V87H612.442V78.568H613.706L613.85 80.28C614.074 79.6507 614.378 79.176 614.762 78.856C615.146 78.536 615.594 78.376 616.106 78.376ZM622.278 78.376C622.576 78.376 622.854 78.408 623.11 78.472L622.838 79.912C622.582 79.848 622.336 79.816 622.102 79.816C621.579 79.816 621.158 80.008 620.838 80.392C620.518 80.776 620.267 81.3733 620.086 82.184V87H618.614V78.568H619.878L620.022 80.28C620.246 79.6507 620.55 79.176 620.934 78.856C621.318 78.536 621.766 78.376 622.278 78.376ZM630.669 82.536C630.669 82.7813 630.659 83.032 630.637 83.288H625.261C625.325 84.216 625.56 84.8987 625.965 85.336C626.371 85.7733 626.893 85.992 627.533 85.992C627.939 85.992 628.312 85.9333 628.653 85.816C628.995 85.6987 629.352 85.512 629.725 85.256L630.365 86.136C629.469 86.84 628.488 87.192 627.421 87.192C626.248 87.192 625.331 86.808 624.669 86.04C624.019 85.272 623.693 84.216 623.693 82.872C623.693 81.9973 623.832 81.224 624.109 80.552C624.397 79.8693 624.803 79.336 625.325 78.952C625.859 78.568 626.483 78.376 627.197 78.376C628.317 78.376 629.176 78.744 629.773 79.48C630.371 80.216 630.669 81.2347 630.669 82.536ZM629.213 82.104C629.213 81.272 629.048 80.6373 628.717 80.2C628.387 79.7627 627.891 79.544 627.229 79.544C626.024 79.544 625.368 80.4293 625.261 82.2H629.213V82.104ZM636.988 78.376C637.756 78.376 638.353 78.6053 638.78 79.064C639.217 79.5227 639.436 80.152 639.436 80.952V87H637.964V81.16C637.964 80.5627 637.852 80.1413 637.628 79.896C637.404 79.6507 637.073 79.528 636.636 79.528C636.188 79.528 635.793 79.656 635.452 79.912C635.111 80.168 634.791 80.536 634.492 81.016V87H633.02V78.568H634.284L634.412 79.816C634.711 79.368 635.079 79.016 635.516 78.76C635.964 78.504 636.455 78.376 636.988 78.376ZM646.651 86.616C646.096 87 645.467 87.192 644.763 87.192C644.048 87.192 643.488 86.9893 643.083 86.584C642.688 86.168 642.491 85.5707 642.491 84.792V79.704H641.019V78.568H642.491V76.664L643.963 76.488V78.568H645.963L645.803 79.704H643.963V84.728C643.963 85.1653 644.038 85.4853 644.187 85.688C644.347 85.88 644.608 85.976 644.971 85.976C645.302 85.976 645.675 85.864 646.091 85.64L646.651 86.616ZM654.011 75.976V85.672H658.539L658.363 87H652.491V75.976H654.011ZM663.141 78.376C664.325 78.376 665.242 78.7707 665.893 79.56C666.554 80.3493 666.885 81.4213 666.885 82.776C666.885 83.6507 666.736 84.424 666.437 85.096C666.138 85.7573 665.706 86.2747 665.141 86.648C664.576 87.0107 663.904 87.192 663.125 87.192C661.941 87.192 661.018 86.7973 660.357 86.008C659.696 85.2187 659.365 84.1467 659.365 82.792C659.365 81.9173 659.514 81.1493 659.813 80.488C660.112 79.816 660.544 79.2987 661.109 78.936C661.674 78.5627 662.352 78.376 663.141 78.376ZM663.141 79.56C661.68 79.56 660.949 80.6373 660.949 82.792C660.949 84.936 661.674 86.008 663.125 86.008C664.576 86.008 665.301 84.9307 665.301 82.776C665.301 80.632 664.581 79.56 663.141 79.56ZM672.389 78.376C672.89 78.376 673.349 78.4507 673.765 78.6C674.181 78.7387 674.581 78.968 674.965 79.288L674.261 80.216C673.962 80.0027 673.669 79.848 673.381 79.752C673.104 79.6453 672.794 79.592 672.453 79.592C671.77 79.592 671.237 79.864 670.853 80.408C670.48 80.952 670.293 81.7573 670.293 82.824C670.293 83.8907 670.48 84.68 670.853 85.192C671.226 85.6933 671.76 85.944 672.453 85.944C672.784 85.944 673.088 85.896 673.365 85.8C673.642 85.6933 673.952 85.528 674.293 85.304L674.965 86.264C674.197 86.8827 673.338 87.192 672.389 87.192C671.248 87.192 670.346 86.808 669.685 86.04C669.034 85.272 668.709 84.2107 668.709 82.856C668.709 81.96 668.858 81.176 669.157 80.504C669.456 79.832 669.877 79.3093 670.421 78.936C670.976 78.5627 671.632 78.376 672.389 78.376ZM682.481 85.032C682.481 85.3733 682.54 85.6293 682.657 85.8C682.775 85.96 682.951 86.0827 683.185 86.168L682.849 87.192C682.412 87.1387 682.06 87.016 681.793 86.824C681.527 86.632 681.329 86.3333 681.201 85.928C680.636 86.7707 679.799 87.192 678.689 87.192C677.857 87.192 677.201 86.9573 676.721 86.488C676.241 86.0187 676.001 85.4053 676.001 84.648C676.001 83.752 676.321 83.064 676.961 82.584C677.612 82.104 678.529 81.864 679.713 81.864H681.009V81.24C681.009 80.6427 680.865 80.216 680.577 79.96C680.289 79.704 679.847 79.576 679.249 79.576C678.631 79.576 677.873 79.7253 676.977 80.024L676.609 78.952C677.655 78.568 678.625 78.376 679.521 78.376C680.513 78.376 681.255 78.6213 681.745 79.112C682.236 79.592 682.481 80.28 682.481 81.176V85.032ZM679.025 86.088C679.868 86.088 680.529 85.6507 681.009 84.776V82.84H679.905C678.348 82.84 677.569 83.416 677.569 84.568C677.569 85.0693 677.692 85.448 677.937 85.704C678.183 85.96 678.545 86.088 679.025 86.088ZM689.76 86.616C689.206 87 688.576 87.192 687.872 87.192C687.158 87.192 686.598 86.9893 686.192 86.584C685.798 86.168 685.6 85.5707 685.6 84.792V79.704H684.128V78.568H685.6V76.664L687.072 76.488V78.568H689.072L688.912 79.704H687.072V84.728C687.072 85.1653 687.147 85.4853 687.296 85.688C687.456 85.88 687.718 85.976 688.08 85.976C688.411 85.976 688.784 85.864 689.2 85.64L689.76 86.616ZM692.758 78.568V87H691.286V78.568H692.758ZM692.006 74.52C692.315 74.52 692.566 74.616 692.758 74.808C692.95 75 693.046 75.24 693.046 75.528C693.046 75.816 692.95 76.056 692.758 76.248C692.566 76.4293 692.315 76.52 692.006 76.52C691.707 76.52 691.462 76.4293 691.27 76.248C691.078 76.056 690.982 75.816 690.982 75.528C690.982 75.24 691.078 75 691.27 74.808C691.462 74.616 691.707 74.52 692.006 74.52ZM698.969 78.376C700.153 78.376 701.071 78.7707 701.721 79.56C702.383 80.3493 702.713 81.4213 702.713 82.776C702.713 83.6507 702.564 84.424 702.265 85.096C701.967 85.7573 701.535 86.2747 700.969 86.648C700.404 87.0107 699.732 87.192 698.953 87.192C697.769 87.192 696.847 86.7973 696.185 86.008C695.524 85.2187 695.193 84.1467 695.193 82.792C695.193 81.9173 695.343 81.1493 695.641 80.488C695.94 79.816 696.372 79.2987 696.937 78.936C697.503 78.5627 698.18 78.376 698.969 78.376ZM698.969 79.56C697.508 79.56 696.777 80.6373 696.777 82.792C696.777 84.936 697.503 86.008 698.953 86.008C700.404 86.008 701.129 84.9307 701.129 82.776C701.129 80.632 700.409 79.56 698.969 79.56ZM709.113 78.376C709.881 78.376 710.478 78.6053 710.905 79.064C711.342 79.5227 711.561 80.152 711.561 80.952V87H710.089V81.16C710.089 80.5627 709.977 80.1413 709.753 79.896C709.529 79.6507 709.198 79.528 708.761 79.528C708.313 79.528 707.918 79.656 707.577 79.912C707.236 80.168 706.916 80.536 706.617 81.016V87H705.145V78.568H706.409L706.537 79.816C706.836 79.368 707.204 79.016 707.641 78.76C708.089 78.504 708.58 78.376 709.113 78.376Z" fill="white"/>
</svg>
