<svg width="1001" height="496" viewBox="0 0 1001 496" fill="none" xmlns="http://www.w3.org/2000/svg">
<g opacity="0.29827">
<path d="M1008.08 163.448L443.182 -356.858V-747.19L28.1096 -770C24.9043 -762.456 4.36709 -740.714 7.57176 -728.596C11.43 -714.102 30.8387 -718.735 36.4776 -709.409C43.0661 -698.42 31.7291 -653.749 28.3457 -640.86C21.8759 -616.445 7.09676 -596.665 2.82235 -572.25C-4.35982 -531.263 10.1824 -534.53 37.7242 -508.927C84.141 -465.742 46.9244 -420.952 58.6176 -370.223C68.1146 -328.878 109.605 -307.554 124.8 -266.211C136.553 -234.37 152.697 -226.233 177.746 -202.947C177.153 -217.084 164.51 -258.785 188.253 -255.102C211.817 -251.478 202.736 -216.669 207.247 -202.115C211.045 -189.997 237.933 -165.761 215.616 -154.593C208.196 -150.91 187.066 -165.582 178.577 -169.503C184.572 -150.791 180.774 -131.367 190.271 -113.487C201.608 -92.162 213.835 -100.359 228.853 -88.7754C244.344 -76.8355 242.683 -63.1137 235.797 -45.0554C228.615 -26.2247 221.196 -29.1352 232.592 -6.44342C240.843 9.95119 254.85 30.7421 266.9 43.2164C273.904 50.4634 281.502 52.1267 288.506 61.3932C294.323 69.1155 292.067 79.2142 299.012 86.1638C310.883 98.1037 331.006 98.282 340.384 113.904C350.831 131.309 338.96 144.437 369.706 142.833C371.309 177.643 377.897 209.185 377.541 243.994C394.695 250.825 422.414 242.687 440.399 239.063C458.266 263.18 481.355 246.429 501.774 259.558C510.678 265.26 508.837 279.517 514.239 284.506C525.339 294.723 533.529 288.308 547.301 291.872C557.51 294.486 565.404 301.97 575.138 304.703C584.338 307.257 599.475 301.258 606.301 309.396C614.492 319.138 600.78 336.958 613.127 344.799C623.395 351.333 638.115 335.77 648.088 338.027C659.721 340.7 693.079 371.174 701.271 381.212C710.59 392.677 719.969 414.062 725.25 428.793C733.501 451.841 732.373 463.127 749.408 479.998C760.27 490.75 749.942 491.522 767.63 494.67C779.204 496.749 794.518 488.374 806.212 487.067C830.549 484.394 855.122 489.027 879.102 484.453C901.421 480.176 922.729 473.166 945.64 469.899C965.465 467.048 1000.37 469.246 1017.94 459.801C1036.99 449.643 1038.71 426.654 1011.17 430.932C1008.97 416.26 1018.77 396.003 1007.85 385.847C1023.04 365.056 1028.56 350.384 1030.93 324.959C1032 313.792 1032.48 301.436 1038 292.05C1043.4 282.783 1058.59 277.259 1061.56 269.299C1066.13 256.943 1058.83 251.419 1053.25 244.528C1049.69 240.073 1039.54 242.212 1036.63 238.291C1031.23 231.103 1036.57 223.678 1033.6 216.431C1024.94 195.462 1014.61 187.205 1008.08 163.444C1008.26 167.424 1008.44 171.463 1008.2 175.384" stroke="white" stroke-width="2" stroke-linecap="round" stroke-linejoin="round"/>
</g>
<path d="M729.114 83.9394C720.545 107.321 740.613 115.526 756.674 130.807C761.434 135.336 761.888 142.817 756.878 147.342C746.106 157.074 705.263 142.917 707.854 155.745C710.529 168.994 745.06 187.531 746.617 188.799C760.284 199.932 764.735 228.174 757.208 243.658C751.852 254.676 709.616 231.319 698 229.5C617.01 216.816 754.971 269.608 672.803 262.147C666.513 261.576 659.921 261.284 653.88 263.127C647.658 265.026 647.856 272.816 649.943 277.027C656.862 290.983 687.835 314.655 679.5 333C676.942 338.629 670.949 342.184 668.251 347.747C666.137 352.104 666.371 357.249 665.431 362" stroke="white" stroke-width="2"/>
<path fill-rule="evenodd" clip-rule="evenodd" d="M570 319C571.657 319 573 317.657 573 316C573 314.343 571.657 313 570 313C568.343 313 567 314.343 567 316C567 317.657 568.343 319 570 319Z" fill="#4AF6CD"/>
<path fill-rule="evenodd" clip-rule="evenodd" d="M664.5 370C668.09 370 671 367.09 671 363.5C671 359.91 668.09 357 664.5 357C660.91 357 658 359.91 658 363.5C658 367.09 660.91 370 664.5 370Z" fill="#4AF6CD"/>
<path fill-rule="evenodd" clip-rule="evenodd" d="M725 471C726.657 471 728 469.657 728 468C728 466.343 726.657 465 725 465C723.343 465 722 466.343 722 468C722 469.657 723.343 471 725 471Z" fill="#4AF6CD"/>
<path fill-rule="evenodd" clip-rule="evenodd" d="M365 228C366.657 228 368 226.657 368 225C368 223.343 366.657 222 365 222C363.343 222 362 223.343 362 225C362 226.657 363.343 228 365 228Z" fill="#4AF6CD"/>
<path fill-rule="evenodd" clip-rule="evenodd" d="M729.5 91C733.09 91 736 88.0899 736 84.5C736 80.9101 733.09 78 729.5 78C725.91 78 723 80.9101 723 84.5C723 88.0899 725.91 91 729.5 91Z" fill="#4AF6CD"/>
<path d="M486.021 360.976L485.845 362.192H481.573V365.792H485.285V367.008H481.573V370.784H486.149V372H480.053V360.976H486.021ZM494.028 370.032C494.028 370.373 494.087 370.629 494.204 370.8C494.321 370.96 494.497 371.083 494.732 371.168L494.396 372.192C493.959 372.139 493.607 372.016 493.34 371.824C493.073 371.632 492.876 371.333 492.748 370.928C492.183 371.771 491.345 372.192 490.236 372.192C489.404 372.192 488.748 371.957 488.268 371.488C487.788 371.019 487.548 370.405 487.548 369.648C487.548 368.752 487.868 368.064 488.508 367.584C489.159 367.104 490.076 366.864 491.26 366.864H492.556V366.24C492.556 365.643 492.412 365.216 492.124 364.96C491.836 364.704 491.393 364.576 490.796 364.576C490.177 364.576 489.42 364.725 488.524 365.024L488.156 363.952C489.201 363.568 490.172 363.376 491.068 363.376C492.06 363.376 492.801 363.621 493.292 364.112C493.783 364.592 494.028 365.28 494.028 366.176V370.032ZM490.572 371.088C491.415 371.088 492.076 370.651 492.556 369.776V367.84H491.452C489.895 367.84 489.116 368.416 489.116 369.568C489.116 370.069 489.239 370.448 489.484 370.704C489.729 370.96 490.092 371.088 490.572 371.088ZM499.183 363.376C499.759 363.376 500.276 363.456 500.735 363.616C501.194 363.776 501.631 364.016 502.047 364.336L501.423 365.264C501.039 365.019 500.671 364.837 500.319 364.72C499.978 364.603 499.615 364.544 499.231 364.544C498.751 364.544 498.372 364.645 498.095 364.848C497.818 365.04 497.679 365.307 497.679 365.648C497.679 365.989 497.807 366.256 498.063 366.448C498.33 366.64 498.804 366.827 499.487 367.008C500.426 367.243 501.124 367.563 501.583 367.968C502.052 368.373 502.287 368.928 502.287 369.632C502.287 370.464 501.962 371.099 501.311 371.536C500.671 371.973 499.887 372.192 498.959 372.192C497.679 372.192 496.618 371.824 495.775 371.088L496.559 370.192C497.274 370.736 498.063 371.008 498.927 371.008C499.482 371.008 499.919 370.896 500.239 370.672C500.57 370.437 500.735 370.123 500.735 369.728C500.735 369.44 500.676 369.211 500.559 369.04C500.442 368.859 500.239 368.704 499.951 368.576C499.663 368.437 499.242 368.293 498.687 368.144C497.791 367.909 497.14 367.595 496.735 367.2C496.34 366.805 496.143 366.304 496.143 365.696C496.143 365.259 496.271 364.864 496.527 364.512C496.794 364.149 497.156 363.872 497.615 363.68C498.084 363.477 498.607 363.376 499.183 363.376ZM508.62 371.616C508.065 372 507.436 372.192 506.732 372.192C506.017 372.192 505.457 371.989 505.052 371.584C504.657 371.168 504.46 370.571 504.46 369.792V364.704H502.988V363.568H504.46V361.664L505.932 361.488V363.568H507.932L507.772 364.704H505.932V369.728C505.932 370.165 506.006 370.485 506.156 370.688C506.316 370.88 506.577 370.976 506.94 370.976C507.27 370.976 507.644 370.864 508.06 370.64L508.62 371.616ZM517.179 360.784C517.915 360.784 518.545 360.891 519.067 361.104C519.59 361.307 520.097 361.627 520.587 362.064L519.755 362.992C519.339 362.661 518.929 362.421 518.523 362.272C518.129 362.112 517.702 362.032 517.243 362.032C516.667 362.032 516.193 362.165 515.819 362.432C515.446 362.699 515.259 363.088 515.259 363.6C515.259 363.92 515.323 364.192 515.451 364.416C515.579 364.629 515.814 364.827 516.155 365.008C516.507 365.189 517.014 365.381 517.675 365.584C518.369 365.797 518.945 366.027 519.403 366.272C519.862 366.517 520.23 366.859 520.507 367.296C520.795 367.723 520.939 368.267 520.939 368.928C520.939 369.568 520.779 370.133 520.459 370.624C520.15 371.115 519.697 371.499 519.099 371.776C518.513 372.053 517.814 372.192 517.003 372.192C515.478 372.192 514.23 371.717 513.259 370.768L514.091 369.84C514.539 370.203 514.993 370.48 515.451 370.672C515.91 370.853 516.422 370.944 516.987 370.944C517.67 370.944 518.235 370.779 518.683 370.448C519.131 370.107 519.355 369.616 519.355 368.976C519.355 368.613 519.286 368.315 519.147 368.08C519.009 367.835 518.769 367.616 518.427 367.424C518.097 367.232 517.611 367.04 516.971 366.848C515.841 366.507 515.014 366.096 514.491 365.616C513.969 365.136 513.707 364.485 513.707 363.664C513.707 363.109 513.851 362.613 514.139 362.176C514.438 361.739 514.849 361.397 515.371 361.152C515.905 360.907 516.507 360.784 517.179 360.784ZM527.066 363.376C527.834 363.376 528.431 363.605 528.858 364.064C529.295 364.523 529.514 365.152 529.514 365.952V372H528.042V366.16C528.042 365.563 527.925 365.141 527.69 364.896C527.466 364.651 527.135 364.528 526.698 364.528C526.261 364.528 525.871 364.656 525.53 364.912C525.189 365.168 524.869 365.531 524.57 366V372H523.098V360.192L524.57 360.032V364.736C525.231 363.829 526.063 363.376 527.066 363.376ZM535.641 363.376C536.825 363.376 537.742 363.771 538.393 364.56C539.054 365.349 539.385 366.421 539.385 367.776C539.385 368.651 539.236 369.424 538.937 370.096C538.638 370.757 538.206 371.275 537.641 371.648C537.076 372.011 536.404 372.192 535.625 372.192C534.441 372.192 533.518 371.797 532.857 371.008C532.196 370.219 531.865 369.147 531.865 367.792C531.865 366.917 532.014 366.149 532.313 365.488C532.612 364.816 533.044 364.299 533.609 363.936C534.174 363.563 534.852 363.376 535.641 363.376ZM535.641 364.56C534.18 364.56 533.449 365.637 533.449 367.792C533.449 369.936 534.174 371.008 535.625 371.008C537.076 371.008 537.801 369.931 537.801 367.776C537.801 365.632 537.081 364.56 535.641 364.56ZM545.481 363.376C545.78 363.376 546.057 363.408 546.313 363.472L546.041 364.912C545.785 364.848 545.54 364.816 545.305 364.816C544.782 364.816 544.361 365.008 544.041 365.392C543.721 365.776 543.47 366.373 543.289 367.184V372H541.817V363.568H543.081L543.225 365.28C543.449 364.651 543.753 364.176 544.137 363.856C544.521 363.536 544.969 363.376 545.481 363.376ZM553.872 367.536C553.872 367.781 553.862 368.032 553.84 368.288H548.464C548.528 369.216 548.763 369.899 549.168 370.336C549.574 370.773 550.096 370.992 550.736 370.992C551.142 370.992 551.515 370.933 551.856 370.816C552.198 370.699 552.555 370.512 552.928 370.256L553.568 371.136C552.672 371.84 551.691 372.192 550.624 372.192C549.451 372.192 548.534 371.808 547.872 371.04C547.222 370.272 546.896 369.216 546.896 367.872C546.896 366.997 547.035 366.224 547.312 365.552C547.6 364.869 548.006 364.336 548.528 363.952C549.062 363.568 549.686 363.376 550.4 363.376C551.52 363.376 552.379 363.744 552.976 364.48C553.574 365.216 553.872 366.235 553.872 367.536ZM552.416 367.104C552.416 366.272 552.251 365.637 551.92 365.2C551.59 364.763 551.094 364.544 550.432 364.544C549.227 364.544 548.571 365.429 548.464 367.2H552.416V367.104ZM562.41 359.184V373.568H562.058V359.184H562.41ZM581.237 372H579.765L579.381 367.024C579.221 365.072 579.131 363.573 579.109 362.528L576.725 370.752H575.301L572.789 362.512C572.789 363.845 572.72 365.387 572.581 367.136L572.213 372H570.773L571.685 360.976H573.733L576.053 368.992L578.261 360.976H580.325L581.237 372ZM589.434 370.032C589.434 370.373 589.493 370.629 589.61 370.8C589.728 370.96 589.904 371.083 590.138 371.168L589.802 372.192C589.365 372.139 589.013 372.016 588.746 371.824C588.48 371.632 588.282 371.333 588.154 370.928C587.589 371.771 586.752 372.192 585.642 372.192C584.81 372.192 584.154 371.957 583.674 371.488C583.194 371.019 582.954 370.405 582.954 369.648C582.954 368.752 583.274 368.064 583.914 367.584C584.565 367.104 585.482 366.864 586.666 366.864H587.962V366.24C587.962 365.643 587.818 365.216 587.53 364.96C587.242 364.704 586.8 364.576 586.202 364.576C585.584 364.576 584.826 364.725 583.93 365.024L583.562 363.952C584.608 363.568 585.578 363.376 586.474 363.376C587.466 363.376 588.208 363.621 588.698 364.112C589.189 364.592 589.434 365.28 589.434 366.176V370.032ZM585.978 371.088C586.821 371.088 587.482 370.651 587.962 369.776V367.84H586.858C585.301 367.84 584.522 368.416 584.522 369.568C584.522 370.069 584.645 370.448 584.89 370.704C585.136 370.96 585.498 371.088 585.978 371.088ZM593.981 372.192C593.437 372.192 593.005 372.032 592.685 371.712C592.376 371.381 592.221 370.923 592.221 370.336V360.176L593.693 360V370.304C593.693 370.539 593.731 370.709 593.805 370.816C593.891 370.923 594.029 370.976 594.221 370.976C594.424 370.976 594.605 370.944 594.765 370.88L595.149 371.904C594.797 372.096 594.408 372.192 593.981 372.192ZM598.461 363.568V372H596.989V363.568H598.461ZM597.709 359.52C598.018 359.52 598.269 359.616 598.461 359.808C598.653 360 598.749 360.24 598.749 360.528C598.749 360.816 598.653 361.056 598.461 361.248C598.269 361.429 598.018 361.52 597.709 361.52C597.41 361.52 597.165 361.429 596.973 361.248C596.781 361.056 596.685 360.816 596.685 360.528C596.685 360.24 596.781 360 596.973 359.808C597.165 359.616 597.41 359.52 597.709 359.52ZM605.36 363.376C606.32 363.376 607.083 363.765 607.648 364.544C608.214 365.312 608.496 366.389 608.496 367.776C608.496 368.651 608.363 369.424 608.096 370.096C607.83 370.757 607.446 371.275 606.944 371.648C606.443 372.011 605.856 372.192 605.184 372.192C604.299 372.192 603.552 371.819 602.944 371.072L602.8 372H601.504V360.176L602.976 360V364.624C603.584 363.792 604.379 363.376 605.36 363.376ZM604.832 371.024C605.483 371.024 605.99 370.763 606.352 370.24C606.726 369.707 606.912 368.885 606.912 367.776C606.912 366.635 606.742 365.813 606.4 365.312C606.059 364.8 605.574 364.544 604.944 364.544C604.198 364.544 603.542 364.981 602.976 365.856V369.888C603.2 370.24 603.472 370.517 603.792 370.72C604.123 370.923 604.47 371.024 604.832 371.024ZM617.276 372H616.012L615.9 370.688C615.58 371.211 615.212 371.595 614.796 371.84C614.38 372.075 613.874 372.192 613.276 372.192C612.54 372.192 611.964 371.968 611.548 371.52C611.132 371.072 610.924 370.437 610.924 369.616V363.568H612.396V369.456C612.396 370.032 612.498 370.443 612.7 370.688C612.903 370.923 613.234 371.04 613.692 371.04C614.514 371.04 615.218 370.555 615.804 369.584V363.568H617.276V372ZM620.701 369.968C621.021 369.968 621.288 370.075 621.501 370.288C621.714 370.501 621.821 370.763 621.821 371.072C621.821 371.403 621.725 371.781 621.533 372.208L620.461 374.656H619.405L620.045 372C619.906 371.893 619.794 371.76 619.709 371.6C619.634 371.44 619.597 371.264 619.597 371.072C619.597 370.763 619.704 370.501 619.917 370.288C620.13 370.075 620.392 369.968 620.701 369.968ZM632.331 360.784C632.992 360.784 633.547 360.869 633.995 361.04C634.454 361.211 634.918 361.488 635.387 361.872L634.555 362.848C633.883 362.304 633.174 362.032 632.427 362.032C631.51 362.032 630.768 362.384 630.203 363.088C629.648 363.792 629.371 364.923 629.371 366.48C629.371 367.995 629.648 369.115 630.203 369.84C630.758 370.555 631.494 370.912 632.411 370.912C632.88 370.912 633.291 370.832 633.643 370.672C633.995 370.512 634.368 370.288 634.763 370L635.515 370.96C635.174 371.312 634.736 371.605 634.203 371.84C633.67 372.075 633.056 372.192 632.363 372.192C631.467 372.192 630.667 371.973 629.963 371.536C629.27 371.088 628.726 370.437 628.331 369.584C627.947 368.72 627.755 367.685 627.755 366.48C627.755 365.275 627.958 364.245 628.363 363.392C628.768 362.528 629.318 361.877 630.011 361.44C630.704 361.003 631.478 360.784 632.331 360.784ZM643.3 372L642.468 369.232H638.292L637.46 372H635.924L639.46 360.976H641.38L644.9 372H643.3ZM638.66 368H642.1L640.388 362.24L638.66 368Z" fill="white"/>
<path d="M598.378 75.784C599.039 75.784 599.594 75.8693 600.042 76.04C600.501 76.2107 600.965 76.488 601.434 76.872L600.602 77.848C599.93 77.304 599.221 77.032 598.474 77.032C597.557 77.032 596.815 77.384 596.25 78.088C595.695 78.792 595.418 79.9227 595.418 81.48C595.418 82.9947 595.695 84.1147 596.25 84.84C596.805 85.5547 597.541 85.912 598.458 85.912C598.927 85.912 599.338 85.832 599.69 85.672C600.042 85.512 600.415 85.288 600.81 85L601.562 85.96C601.221 86.312 600.783 86.6053 600.25 86.84C599.717 87.0747 599.103 87.192 598.41 87.192C597.514 87.192 596.714 86.9733 596.01 86.536C595.317 86.088 594.773 85.4373 594.378 84.584C593.994 83.72 593.802 82.6853 593.802 81.48C593.802 80.2747 594.005 79.2453 594.41 78.392C594.815 77.528 595.365 76.8773 596.058 76.44C596.751 76.0027 597.525 75.784 598.378 75.784ZM609.401 87H608.137L608.025 85.688C607.705 86.2107 607.337 86.5947 606.921 86.84C606.505 87.0747 605.999 87.192 605.401 87.192C604.665 87.192 604.089 86.968 603.673 86.52C603.257 86.072 603.049 85.4373 603.049 84.616V78.568H604.521V84.456C604.521 85.032 604.623 85.4427 604.825 85.688C605.028 85.9227 605.359 86.04 605.817 86.04C606.639 86.04 607.343 85.5547 607.929 84.584V78.568H609.401V87ZM616.106 78.376C616.405 78.376 616.682 78.408 616.938 78.472L616.666 79.912C616.41 79.848 616.165 79.816 615.93 79.816C615.407 79.816 614.986 80.008 614.666 80.392C614.346 80.776 614.095 81.3733 613.914 82.184V87H612.442V78.568H613.706L613.85 80.28C614.074 79.6507 614.378 79.176 614.762 78.856C615.146 78.536 615.594 78.376 616.106 78.376ZM622.278 78.376C622.576 78.376 622.854 78.408 623.11 78.472L622.838 79.912C622.582 79.848 622.336 79.816 622.102 79.816C621.579 79.816 621.158 80.008 620.838 80.392C620.518 80.776 620.267 81.3733 620.086 82.184V87H618.614V78.568H619.878L620.022 80.28C620.246 79.6507 620.55 79.176 620.934 78.856C621.318 78.536 621.766 78.376 622.278 78.376ZM630.669 82.536C630.669 82.7813 630.659 83.032 630.637 83.288H625.261C625.325 84.216 625.56 84.8987 625.965 85.336C626.371 85.7733 626.893 85.992 627.533 85.992C627.939 85.992 628.312 85.9333 628.653 85.816C628.995 85.6987 629.352 85.512 629.725 85.256L630.365 86.136C629.469 86.84 628.488 87.192 627.421 87.192C626.248 87.192 625.331 86.808 624.669 86.04C624.019 85.272 623.693 84.216 623.693 82.872C623.693 81.9973 623.832 81.224 624.109 80.552C624.397 79.8693 624.803 79.336 625.325 78.952C625.859 78.568 626.483 78.376 627.197 78.376C628.317 78.376 629.176 78.744 629.773 79.48C630.371 80.216 630.669 81.2347 630.669 82.536ZM629.213 82.104C629.213 81.272 629.048 80.6373 628.717 80.2C628.387 79.7627 627.891 79.544 627.229 79.544C626.024 79.544 625.368 80.4293 625.261 82.2H629.213V82.104ZM636.988 78.376C637.756 78.376 638.353 78.6053 638.78 79.064C639.217 79.5227 639.436 80.152 639.436 80.952V87H637.964V81.16C637.964 80.5627 637.852 80.1413 637.628 79.896C637.404 79.6507 637.073 79.528 636.636 79.528C636.188 79.528 635.793 79.656 635.452 79.912C635.111 80.168 634.791 80.536 634.492 81.016V87H633.02V78.568H634.284L634.412 79.816C634.711 79.368 635.079 79.016 635.516 78.76C635.964 78.504 636.455 78.376 636.988 78.376ZM646.651 86.616C646.096 87 645.467 87.192 644.763 87.192C644.048 87.192 643.488 86.9893 643.083 86.584C642.688 86.168 642.491 85.5707 642.491 84.792V79.704H641.019V78.568H642.491V76.664L643.963 76.488V78.568H645.963L645.803 79.704H643.963V84.728C643.963 85.1653 644.038 85.4853 644.187 85.688C644.347 85.88 644.608 85.976 644.971 85.976C645.302 85.976 645.675 85.864 646.091 85.64L646.651 86.616ZM654.011 75.976V85.672H658.539L658.363 87H652.491V75.976H654.011ZM663.141 78.376C664.325 78.376 665.242 78.7707 665.893 79.56C666.554 80.3493 666.885 81.4213 666.885 82.776C666.885 83.6507 666.736 84.424 666.437 85.096C666.138 85.7573 665.706 86.2747 665.141 86.648C664.576 87.0107 663.904 87.192 663.125 87.192C661.941 87.192 661.018 86.7973 660.357 86.008C659.696 85.2187 659.365 84.1467 659.365 82.792C659.365 81.9173 659.514 81.1493 659.813 80.488C660.112 79.816 660.544 79.2987 661.109 78.936C661.674 78.5627 662.352 78.376 663.141 78.376ZM663.141 79.56C661.68 79.56 660.949 80.6373 660.949 82.792C660.949 84.936 661.674 86.008 663.125 86.008C664.576 86.008 665.301 84.9307 665.301 82.776C665.301 80.632 664.581 79.56 663.141 79.56ZM672.389 78.376C672.89 78.376 673.349 78.4507 673.765 78.6C674.181 78.7387 674.581 78.968 674.965 79.288L674.261 80.216C673.962 80.0027 673.669 79.848 673.381 79.752C673.104 79.6453 672.794 79.592 672.453 79.592C671.77 79.592 671.237 79.864 670.853 80.408C670.48 80.952 670.293 81.7573 670.293 82.824C670.293 83.8907 670.48 84.68 670.853 85.192C671.226 85.6933 671.76 85.944 672.453 85.944C672.784 85.944 673.088 85.896 673.365 85.8C673.642 85.6933 673.952 85.528 674.293 85.304L674.965 86.264C674.197 86.8827 673.338 87.192 672.389 87.192C671.248 87.192 670.346 86.808 669.685 86.04C669.034 85.272 668.709 84.2107 668.709 82.856C668.709 81.96 668.858 81.176 669.157 80.504C669.456 79.832 669.877 79.3093 670.421 78.936C670.976 78.5627 671.632 78.376 672.389 78.376ZM682.481 85.032C682.481 85.3733 682.54 85.6293 682.657 85.8C682.775 85.96 682.951 86.0827 683.185 86.168L682.849 87.192C682.412 87.1387 682.06 87.016 681.793 86.824C681.527 86.632 681.329 86.3333 681.201 85.928C680.636 86.7707 679.799 87.192 678.689 87.192C677.857 87.192 677.201 86.9573 676.721 86.488C676.241 86.0187 676.001 85.4053 676.001 84.648C676.001 83.752 676.321 83.064 676.961 82.584C677.612 82.104 678.529 81.864 679.713 81.864H681.009V81.24C681.009 80.6427 680.865 80.216 680.577 79.96C680.289 79.704 679.847 79.576 679.249 79.576C678.631 79.576 677.873 79.7253 676.977 80.024L676.609 78.952C677.655 78.568 678.625 78.376 679.521 78.376C680.513 78.376 681.255 78.6213 681.745 79.112C682.236 79.592 682.481 80.28 682.481 81.176V85.032ZM679.025 86.088C679.868 86.088 680.529 85.6507 681.009 84.776V82.84H679.905C678.348 82.84 677.569 83.416 677.569 84.568C677.569 85.0693 677.692 85.448 677.937 85.704C678.183 85.96 678.545 86.088 679.025 86.088ZM689.76 86.616C689.206 87 688.576 87.192 687.872 87.192C687.158 87.192 686.598 86.9893 686.192 86.584C685.798 86.168 685.6 85.5707 685.6 84.792V79.704H684.128V78.568H685.6V76.664L687.072 76.488V78.568H689.072L688.912 79.704H687.072V84.728C687.072 85.1653 687.147 85.4853 687.296 85.688C687.456 85.88 687.718 85.976 688.08 85.976C688.411 85.976 688.784 85.864 689.2 85.64L689.76 86.616ZM692.758 78.568V87H691.286V78.568H692.758ZM692.006 74.52C692.315 74.52 692.566 74.616 692.758 74.808C692.95 75 693.046 75.24 693.046 75.528C693.046 75.816 692.95 76.056 692.758 76.248C692.566 76.4293 692.315 76.52 692.006 76.52C691.707 76.52 691.462 76.4293 691.27 76.248C691.078 76.056 690.982 75.816 690.982 75.528C690.982 75.24 691.078 75 691.27 74.808C691.462 74.616 691.707 74.52 692.006 74.52ZM698.969 78.376C700.153 78.376 701.071 78.7707 701.721 79.56C702.383 80.3493 702.713 81.4213 702.713 82.776C702.713 83.6507 702.564 84.424 702.265 85.096C701.967 85.7573 701.535 86.2747 700.969 86.648C700.404 87.0107 699.732 87.192 698.953 87.192C697.769 87.192 696.847 86.7973 696.185 86.008C695.524 85.2187 695.193 84.1467 695.193 82.792C695.193 81.9173 695.343 81.1493 695.641 80.488C695.94 79.816 696.372 79.2987 696.937 78.936C697.503 78.5627 698.18 78.376 698.969 78.376ZM698.969 79.56C697.508 79.56 696.777 80.6373 696.777 82.792C696.777 84.936 697.503 86.008 698.953 86.008C700.404 86.008 701.129 84.9307 701.129 82.776C701.129 80.632 700.409 79.56 698.969 79.56ZM709.113 78.376C709.881 78.376 710.478 78.6053 710.905 79.064C711.342 79.5227 711.561 80.152 711.561 80.952V87H710.089V81.16C710.089 80.5627 709.977 80.1413 709.753 79.896C709.529 79.6507 709.198 79.528 708.761 79.528C708.313 79.528 707.918 79.656 707.577 79.912C707.236 80.168 706.916 80.536 706.617 81.016V87H705.145V78.568H706.409L706.537 79.816C706.836 79.368 707.204 79.016 707.641 78.76C708.089 78.504 708.58 78.376 709.113 78.376Z" fill="white"/>
</svg>
